<svg height='100px' width='100px'  fill="#333333" xmlns="http://www.w3.org/2000/svg" viewBox="0 0 512 512" x="0px" y="0px"><g><path d="M29.657,258.343A8,8,0,0,0,16,264V488a8,8,0,0,0,8,8H248a8,8,0,0,0,5.657-13.657ZM32,480V283.313L228.687,480Z"></path><path d="M72,448h64a8,8,0,0,0,5.657-13.657l-64-64A8,8,0,0,0,64,376v64A8,8,0,0,0,72,448Zm8-52.686L116.687,432H80Z"></path><rect x="104" y="48" width="16" height="16"></rect><rect x="136" y="48" width="16" height="16"></rect><rect x="168" y="48" width="16" height="16"></rect><path d="M180.756,160.7A7.884,7.884,0,0,0,176,168v88a8,8,0,0,0,4.751,7.311l72,32a7.968,7.968,0,0,0,6.5-.006l0,.006,72-32A8,8,0,0,0,336,256V168a7.884,7.884,0,0,0-4.756-7.3l0-.011-72-32a8.01,8.01,0,0,0-6.5,0l-72,32ZM248,275.69,192,250.8V180.31L248,205.2ZM320,250.8,264,275.69V205.2l56-24.889ZM256,144.754,308.3,168,256,191.245,203.7,168Z"></path><rect x="248" y="320" width="16" height="40"></rect><rect x="248" y="72" width="16" height="40"></rect><rect x="128.75" y="133.438" width="16" height="37.125" transform="translate(-59.345 209.889) rotate(-64.47)"></rect><rect x="356.688" y="144" width="37.125" height="16" transform="translate(-28.87 176.566) rotate(-25.53)"></rect><rect x="118.188" y="272" width="37.125" height="16" transform="translate(-107.333 86.288) rotate(-25.533)"></rect><path d="M488,384H440V259.314l47.03-47.03a30.627,30.627,0,1,0-43.314-43.313L440,172.687V104a8,8,0,0,0-2.343-5.657l-80-80A8,8,0,0,0,352,16H104A32.036,32.036,0,0,0,72,48V280H88V48a16.019,16.019,0,0,1,16-16H344V80a32.036,32.036,0,0,0,32,32h48v76.686L298.343,314.343a8.008,8.008,0,0,0-2.188,4.088l-8,40a8,8,0,0,0,9.414,9.414l40-8a8,8,0,0,0,4.088-2.188L424,275.314V384H264a8,8,0,0,0-8,8v24H216v16h40v24a8,8,0,0,0,8,8H488a8,8,0,0,0,8-8V392A8,8,0,0,0,488,384ZM360,80V43.314L412.686,96H376A16.019,16.019,0,0,1,360,80ZM315.314,320,440,195.314,460.686,216,336,340.686ZM465.373,176a14.628,14.628,0,0,1,10.343,24.971L472,204.686,451.314,184l3.716-3.716A14.529,14.529,0,0,1,465.373,176ZM308.913,336.227l10.86,10.86L306.2,349.8ZM480,448H272V400h16v16h16V400h16v16h16V400h16v16h16V400h16v16h16V400h16v16h16V400h16v16h16V400h16Z"></path></g></svg>