<svg height='100px' width='100px'  fill="#333333" xmlns="http://www.w3.org/2000/svg" xmlns:xlink="http://www.w3.org/1999/xlink" version="1.1" x="0px" y="0px" viewBox="0 0 512 512" style="enable-background:new 0 0 512 512;" xml:space="preserve"><style type="text/css">
	.st0{fill:none;}
</style><g><g><path d="M244.729126,458.2832031c9.1108398,0,16.5239258-7.4121094,16.5239258-16.5229492    s-7.4130859-16.5234375-16.5239258-16.5234375s-16.5234375,7.4125977-16.5234375,16.5234375    S235.6182861,458.2832031,244.729126,458.2832031z M244.729126,437.2368164c2.4946289,0,4.5239258,2.0292969,4.5239258,4.5234375    s-2.0292969,4.5229492-4.5239258,4.5229492c-2.4941406,0-4.5234375-2.0288086-4.5234375-4.5229492    S242.2349854,437.2368164,244.729126,437.2368164z"></path></g><g><path d="M414.2399902,278.8499756c24.8800049-29.2099609,23.5400391-73.25-4.0499268-100.8399658    c-29.0300293-29.0300293-76.25-29.0300293-105.2800293,0c-29.0200195,29.0200195-29.0200195,76.25,0,105.2700195    c14.5200195,14.5100098,33.5799561,21.7699585,52.6398926,21.7699585c17.1900635,0,34.3601074-5.9199829,48.210083-17.7098999    l64.8699951,64.8699341l8.4799805-8.4900513L414.2399902,278.8499756z"></path></g><g><path d="M374.6199951,406.0200195H114.8399658v-80.9700317h-12V431.289978    c0,25.4800415,20.7299805,46.210022,46.2099609,46.210022h191.3601074c25.4799805,0,46.2099609-20.7299805,46.2099609-46.210022    V323.75h-12V406.0200195z M374.6199951,431.289978c0,18.8699951-15.3499756,34.210022-34.2099609,34.210022H149.0499268    c-18.8598633,0-34.2099609-15.3400269-34.2099609-34.210022v-13.2699585h259.7800293V431.289978z"></path></g><g><path d="M114.8399658,98.0200195h259.7800293v43.0799561h12V80.7099609c0-25.4799805-20.7299805-46.2099609-46.2099609-46.2099609    H149.0499268c-25.4799805,0-46.2099609,20.7299805-46.2099609,46.2099609v99.6999512h12V98.0200195z M114.8399658,80.7099609    c0-18.869873,15.3500977-34.2099609,34.2099609-34.2099609h191.3601074c18.8599854,0,34.2099609,15.3400879,34.2099609,34.2099609    v5.3100586H114.8399658V80.7099609z"></path></g><g><rect x="32.8900146" y="292.7399902" width="164.7099609" height="12"></rect></g><g><rect x="53.6700439" y="250.0900879" width="143.9299316" height="12"></rect></g><g><rect x="83.1900635" y="207.4499512" width="114.4099121" height="12"></rect></g></g></svg>