<svg xmlns="http://www.w3.org/2000/svg" xmlns:xlink="http://www.w3.org/1999/xlink" width="100" height="100" viewBox="0 0 100 100"><g transform="translate(50 50) scale(-0.69 0.69) rotate(0) translate(-50 -50)" style="fill:#000000"><svg fill="#000000" xmlns="http://www.w3.org/2000/svg" xmlns:xlink="http://www.w3.org/1999/xlink" version="1.1" x="0px" y="0px" viewBox="0 0 100 100" enable-background="new 0 0 100 100" xml:space="preserve"><g><path d="M31.175,86.304c-0.4,0-0.778-0.242-0.932-0.637c-0.201-0.515,0.054-1.094,0.568-1.295   c16.811-6.553,28.215-16.588,33.895-29.824c9.187-21.408,0.121-44.071,0.028-44.297c-0.209-0.511,0.036-1.095,0.546-1.304   c0.513-0.21,1.096,0.036,1.304,0.546c0.096,0.234,9.472,23.674-0.041,45.844C60.645,69.084,48.867,79.48,31.538,86.235   C31.418,86.282,31.296,86.304,31.175,86.304z"></path></g><g><path d="M45.515,91.128c-0.1,0-0.201-0.015-0.3-0.046l-15.353-4.824c-0.316-0.1-0.563-0.349-0.658-0.667   c-0.095-0.317-0.027-0.662,0.183-0.918l11.162-13.706c0.348-0.429,0.978-0.492,1.407-0.144c0.428,0.349,0.493,0.979,0.144,1.407   L31.869,84.792l13.946,4.382c0.527,0.166,0.82,0.727,0.654,1.254C46.334,90.855,45.94,91.128,45.515,91.128z"></path></g></svg></g></svg>