<svg height='100px' width='100px'  fill="#000000" xmlns:dc="http://purl.org/dc/elements/1.1/" xmlns:cc="http://creativecommons.org/ns#" xmlns:rdf="http://www.w3.org/1999/02/22-rdf-syntax-ns#" xmlns:svg="http://www.w3.org/2000/svg" xmlns="http://www.w3.org/2000/svg" xmlns:sodipodi="http://sodipodi.sourceforge.net/DTD/sodipodi-0.dtd" xmlns:inkscape="http://www.inkscape.org/namespaces/inkscape" version="1.1" x="0px" y="0px" viewBox="0 0 100 100"><g transform="translate(0,-952.36218)"><path d="m 75.455882,976.90631 c -0.78108,-0.7811 -2.04738,-0.781 -2.82842,0 l -22.62749,22.6275 -22.627428,-22.6274 c -0.78107,-0.7811 -2.04734,-0.7811 -2.82842,0 -0.78107,0.781 -0.78106,2.0473 10e-6,2.8284 l 22.627398,22.62739 -22.627338,22.6273 c -0.78104,0.7811 -0.78107,2.0474 -10e-6,2.8285 0.78108,0.781 2.04739,0.781 2.82843,0 l 22.627358,-22.6274 22.62741,22.6274 c 0.78108,0.7811 2.04736,0.7811 2.82843,0 0.78108,-0.781 0.78107,-2.0473 0,-2.8284 l -22.62742,-22.6274 22.62749,-22.62749 c 0.78104,-0.781 0.78107,-2.0473 0,-2.8284 z" style="text-indent:0;text-transform:none;direction:ltr;block-progression:tb;baseline-shift:baseline;color:#000000;enable-background:accumulate;" fill="#000000" fill-opacity="1" marker="none" visibility="visible" display="inline" overflow="visible"></path></g></svg>