<svg height='100px' width='100px'  fill="#000000" xmlns="http://www.w3.org/2000/svg" xmlns:xlink="http://www.w3.org/1999/xlink" version="1.1" x="0px" y="0px" viewBox="0 0 100 100" style="enable-background:new 0 0 100 100;" xml:space="preserve"><path d="M76,26H24c-3.3,0-6,2.7-6,6v36c0,3.3,2.7,6,6,6h52c3.3,0,6-2.7,6-6V32C82,28.7,79.3,26,76,26z M72.8,39.4  c0.3,0.4,0.3,1.1-0.1,1.4l-22,18C50.4,58.9,50.2,59,50,59s-0.4-0.1-0.6-0.2l-22-18c-0.4-0.3-0.5-1-0.1-1.4c0.3-0.4,1-0.5,1.4-0.1  L50,56.7l21.4-17.5C71.8,38.9,72.4,38.9,72.8,39.4z"></path></svg>