<svg height='100px' width='100px'  fill="#000000" xmlns="http://www.w3.org/2000/svg" xmlns:xlink="http://www.w3.org/1999/xlink" xml:space="preserve" version="1.1" style="shape-rendering:geometricPrecision;text-rendering:geometricPrecision;image-rendering:optimizeQuality;" viewBox="0 0 455 310" x="0px" y="0px" fill-rule="evenodd" clip-rule="evenodd"><defs><style type="text/css">
   
    .fil0 {fill:#000000}
    .fil1 {fill:#000000;fill-rule:nonzero}
   
  </style></defs><g><path class="fil0" d="M197 108c12,0 21,9 21,21 0,11 -9,21 -21,21 -11,0 -21,-10 -21,-21 0,-12 10,-21 21,-21z"></path><path class="fil0" d="M277 108c12,0 21,9 21,21 0,11 -9,21 -21,21 -11,0 -21,-10 -21,-21 0,-12 10,-21 21,-21z"></path><path class="fil0" d="M357 108c12,0 21,9 21,21 0,11 -9,21 -21,21 -11,0 -21,-10 -21,-21 0,-12 10,-21 21,-21z"></path><path class="fil1" d="M115 75c-24,7 -45,18 -61,32 -50,41 -43,100 9,137 52,37 135,41 195,13 -39,-3 -76,-15 -106,-36 -54,-39 -67,-98 -37,-146zm181 182c-55,41 -139,49 -205,24l-59 29 14 -54c-58,-44 -63,-116 -5,-165 24,-20 57,-34 94,-40 5,-5 11,-10 17,-14 70,-49 181,-49 250,0 69,48 71,129 6,180l15 56 -62 -31c-21,8 -43,13 -65,15zm95 -204c-63,-44 -165,-44 -227,0 -60,42 -60,109 0,151 62,44 164,44 227,0 59,-42 59,-109 0,-151z"></path></g></svg>