<svg height='100px' width='100px'  fill="#000000" xmlns:x="http://ns.adobe.com/Extensibility/1.0/" xmlns:i="http://ns.adobe.com/AdobeIllustrator/10.0/" xmlns:graph="http://ns.adobe.com/Graphs/1.0/" xmlns="http://www.w3.org/2000/svg" xmlns:xlink="http://www.w3.org/1999/xlink" version="1.1" x="0px" y="0px" viewBox="0 0 100 100" style="enable-background:new 0 0 100 100;" xml:space="preserve"><g><g i:extraneous="self"><g><path d="M5273.1,2400.1v-2c0-2.8-5-4-9.7-4s-9.7,1.3-9.7,4v2c0,1.8,0.7,3.6,2,4.9l5,4.9c0.3,0.3,0.4,0.6,0.4,1v6.4     c0,0.4,0.2,0.7,0.6,0.8l2.9,0.9c0.5,0.1,1-0.2,1-0.8v-7.2c0-0.4,0.2-0.7,0.4-1l5.1-5C5272.4,2403.7,5273.1,2401.9,5273.1,2400.1z      M5263.4,2400c-4.8,0-7.4-1.3-7.5-1.8v0c0.1-0.5,2.7-1.8,7.5-1.8c4.8,0,7.3,1.3,7.5,1.8C5270.7,2398.7,5268.2,2400,5263.4,2400z"></path><path d="M5268.4,2410.3c-0.6,0-1,0.4-1,1c0,0.6,0.4,1,1,1h4.3c0.6,0,1-0.4,1-1c0-0.6-0.4-1-1-1H5268.4z"></path><path d="M5272.7,2413.7h-4.3c-0.6,0-1,0.4-1,1c0,0.6,0.4,1,1,1h4.3c0.6,0,1-0.4,1-1C5273.7,2414.1,5273.3,2413.7,5272.7,2413.7z"></path><path d="M5272.7,2417h-4.3c-0.6,0-1,0.4-1,1c0,0.6,0.4,1,1,1h4.3c0.6,0,1-0.4,1-1C5273.7,2417.5,5273.3,2417,5272.7,2417z"></path></g><g><path d="M57.5,63.3c-1.4-1.2-2.8-2.7-4.4-4.3c-1.1-1.2-2.3-2.9-3.3-4.7c1.9-6.5,2.8-12.7,0.8-15.7c-0.9-1.4-2.3-2.1-4.1-2.1     c-2,0-3.5,0.9-4.2,2.6c-1.6,3.6,0.8,10.2,3.7,15.6c-0.8,2.6-1.8,5.4-3,8.5c-0.7,1.7-1.5,3.4-2.3,5c-8.2,3.2-13.2,6.8-13.9,10.2     c-0.3,1.6,0.2,3,1.6,4.1c0.8,0.6,1.7,1,2.7,1c0.4,0,0.8-0.1,1.2-0.2c3.8-1,7.9-6.6,10.9-12.3c1.8-0.7,3.9-1.4,6.2-2     c2.7-0.8,5.1-1.4,7.2-1.8c3.9,3.1,7.2,4.8,10.1,4.8c2.2,0.1,3.8-0.7,5.3-2.2c2.2-2.2,1.3-4.1,1-4.6     C71.2,62.4,65.7,61.8,57.5,63.3z M31.3,79.8c-0.4,0.1-0.6,0-0.8-0.1c-0.4-0.3-0.4-0.5-0.3-0.7c0.2-1.2,2.5-3.4,7.5-5.8     C35.3,76.8,32.9,79.4,31.3,79.8z M45.5,40.5c0.1-0.2,0.2-0.5,1-0.5c0.7,0,1,0.3,1.2,0.5c0.9,1.3,0.8,4.6-0.3,9     C45.7,45.7,44.8,42.1,45.5,40.5z M48.3,65.5c-1,0.3-2,0.6-3,0.9c0.3-0.7,0.6-1.4,0.9-2c0.7-1.9,1.5-3.8,2.2-5.8     c0.8,1.1,1.5,2.1,2.2,2.8c0.9,1,1.8,1.9,2.7,2.8C51.7,64.6,50,65,48.3,65.5z M69.4,67.3c-0.7,0.8-1.6,1.1-2.7,1.1     c-1.5,0-3.3-0.7-5.4-2.1C67.1,65.5,70.4,66.1,69.4,67.3z"></path><path d="M85.8,26.6L63.9,4.7c-1.4-1.4-3.3-2.2-5.2-2.2l-39.3,0c0,0,0,0,0,0c-2,0-3.8,0.8-5.2,2.2C12.8,6.1,12,7.9,12,9.9v80.2     c0,4.1,3.3,7.4,7.4,7.4h61.2c4.1,0,7.4-3.3,7.4-7.4V31.8C88,29.9,87.2,28,85.8,26.6z M81.6,28.4H65.4c-1.8,0-3.3-1.5-3.3-3.3V9     L81.6,28.4z M80.6,93.2H19.4c-1.7,0-3.1-1.4-3.1-3.1V9.9c0-0.8,0.3-1.6,0.9-2.2c0.6-0.6,1.4-0.9,2.2-0.9c0,0,0,0,0,0l38.4,0v18.3     c0,4.2,3.4,7.6,7.6,7.6h18.3v57.4C83.7,91.8,82.3,93.2,80.6,93.2z"></path></g></g></g></svg>