<svg height='100px' width='100px'  fill="#333333" xmlns="http://www.w3.org/2000/svg" xmlns:xlink="http://www.w3.org/1999/xlink" version="1.1" x="0px" y="0px" viewBox="0 0 2000 2000" style="enable-background:new 0 0 2000 2000;" xml:space="preserve"><g><path d="M625,875c138,0,250-112,250-250S763.1,375,625,375S375,486.9,375,625S486.9,875,625,875z M625,500.9   c68.5,0,124,55.5,124,124s-55.5,124-124,124s-124-55.5-124-124C500.9,556.5,556.5,500.9,625,500.9z"></path><path d="M1812.5-0.1H187.4C83.9-0.1-0.1,83.9-0.1,187.4v1625.1c0,103.6,83.9,187.5,187.5,187.5h1625.1   c103.6,0,187.5-83.9,187.5-187.5V187.4C2000,83.9,1916.1-0.1,1812.5-0.1z M249.9,124.9h1500c69,0,125,56,125,125v1083.9   l-364.1-364.1c-1-1.2-2.1-2.3-3.2-3.4c-24.3-24.3-63.6-24.4-88-0.3l0,0l-581.8,581.8l-362-362c-1-1.2-2.1-2.3-3.2-3.4   c-24.3-24.3-63.6-24.4-88-0.3l0,0l-259.7,259.7V249.9C124.9,180.9,180.9,124.9,249.9,124.9z M124.9,1750v-131.5L428.4,1315   l321.1,321.1L510.6,1875H249.9C180.9,1875,124.9,1819,124.9,1750z M1750,1875H687.4l776-776l411.6,411.6V1750   C1875,1819,1819,1875,1750,1875z"></path></g></svg>