<svg height='100px' width='100px'  fill="#000000" xmlns="http://www.w3.org/2000/svg" data-name="Layer 1" viewBox="0 0 100 100" x="0px" y="0px"><title>UI1</title><path d="M76.72,99.79a24.84,24.84,0,0,1-11.55-1.24A72.18,72.18,0,0,1,43,85.48c-8.25-6.85-15.73-15.33-23.54-26.69A138.92,138.92,0,0,1,7.58,38.35,37.29,37.29,0,0,1,3.79,23.29,23.64,23.64,0,0,1,17.86,1.69c1.25-.51,2.5-.9,3.7-1.28l.21-.06a7.15,7.15,0,0,1,7.88,2.47q4.47,5.19,9,10.35l5.25,6.08c1.4,1.62,2.79,3.24,4.21,4.83a7.41,7.41,0,0,1,1.31,8.42,23.77,23.77,0,0,1-9.55,11.1c5.06,6.23,9.93,12.17,15.35,17.7.21-.26.43-.52.66-.77a23.61,23.61,0,0,1,12.22-7.31,7.22,7.22,0,0,1,7.44,2.33l.51.59Q85.19,66.73,94.36,77.3a7.26,7.26,0,0,1,1.14,8A23.62,23.62,0,0,1,76.72,99.79ZM23.88,6.09a1.11,1.11,0,0,0-.3.08l-.21.06c-1.13.35-2.19.68-3.18,1.09C14.28,9.77,9.75,16.73,9.88,23.17A31.06,31.06,0,0,0,13.11,35.8,133.25,133.25,0,0,0,24.45,55.34c7.5,10.89,14.62,19,22.42,25.45a66.19,66.19,0,0,0,20.32,12A17.84,17.84,0,0,0,89.89,83c.42-1,.23-1.29-.13-1.71q-9.2-10.58-18.35-21.16l-.51-.59a1.13,1.13,0,0,0-1.4-.39,17.28,17.28,0,0,0-9.12,5.45,25.43,25.43,0,0,0-1.59,2l-.86,1.15-2.08,2.7L53.4,68.1c-6.94-6.7-13-14.21-18.95-21.47l-3.9-4.79,3.34-2a6.75,6.75,0,0,1,.76-.42,17.56,17.56,0,0,0,9.16-9.4,1.44,1.44,0,0,0-.26-1.92c-1.46-1.62-2.88-3.27-4.29-4.92l-5.24-6Q29.52,12,25,6.79C24.49,6.16,24.18,6.05,23.88,6.09Z"></path></svg>