<svg xmlns="http://www.w3.org/2000/svg" viewBox="0 0 485 223.1"><title>logo-site</title><g id="Calque_2" data-name="Calque 2"><g id="Calque_1-2" data-name="Calque 1"><path d="M83.3,10.7H45v94.92H41V10.7H0V7H83.3Z"/><path d="M92.25,47.59a28.44,28.44,0,0,1,11.11-12.22Q110.63,31,121.06,31q12.68,0,19.25,7.24t6.57,22.82v44.55h-4.13V60.93q0-14.42-5.89-20.34t-15.72-5.92q-12.91,0-19.93,6.84a31.7,31.7,0,0,0-9,17.53v46.58H88.19V68.11H88V65.74a12,12,0,0,1,.15-1.9V0h4.05Z"/><path d="M153.65,67.57q0-16.11,9.87-26.34T189.15,31q15.83,0,25.7,10.22t9.87,26.34v2.84q0,16.18-9.87,26.4T189.3,107q-15.84,0-25.74-10.22t-9.91-26.4Zm4.05,2.84q0,13.81,8.56,23.39t23,9.58q14.26,0,22.81-9.61t8.56-23.36V67.57A33.74,33.74,0,0,0,212,44.38q-8.63-9.71-22.89-9.72t-22.89,9.72a33.91,33.91,0,0,0-8.56,23.19Z"/><path d="M234.71,32.36l.53,14.76a28.24,28.24,0,0,1,10.58-11.88Q252.65,31,262.48,31q10.36,0,16.89,4.71t9.08,14.59a29.35,29.35,0,0,1,10.62-14.25q7.24-5.11,18.05-5.11,13.43,0,20.41,7.92t7,24.91v41.77h-4.13V63.64q0-15.91-6.3-22.48T317.27,34.6q-12.53,0-19.1,6.63t-8.44,17.2q.07,1.36.15,2.74t.07,2.81v41.64h-4.13V68.11h-.23q0-1.28,0-2.57c0-.86.09-1.69.19-2.5q-.23-15.57-6.45-22t-16.74-6.4q-12.38,0-18.87,6.47a31.16,31.16,0,0,0-8.44,16.76v47.73h-4.13V68.11H231q0-.95,0-1.9t.11-2.37V32.36Z"/><path d="M408.31,92.07a30.47,30.47,0,0,1-12.53,10.8Q387.45,107,375.59,107q-11.33,0-17.79-5.59t-6.45-15.06q0-9.21,9.64-15.44t24.13-6.23h23.19V54q0-9.14-6.49-14.25t-18.27-5.11q-11,0-17.75,4.81t-6.72,12.39l-3.38-.13-.15-.34q-.45-8.53,7.35-14.45T383.54,31q13.06,0,20.94,6t7.88,17.2V90.86a56.63,56.63,0,0,0,.49,7.51,43.14,43.14,0,0,0,1.61,7.24H410q-1-4.81-1.31-7.21a37.22,37.22,0,0,1-.34-5.18Zm-32.72,11.37q12.08,0,20.45-4.81A28.67,28.67,0,0,0,408.31,84.9V68.45h-23q-12.61,0-21.28,5.25t-8.67,13a15.16,15.16,0,0,0,5.52,12.08Q366.43,103.45,375.59,103.45Z"/><path d="M475.94,87.67q0-5.82-5.52-10.6T451.17,69.6q-14.49-2.77-21-7.14t-6.49-13q0-7.85,7.36-13.17T450.87,31q13.43,0,21.16,5.69t7.35,14.83l-.15.41h-3.45q0-7.18-6.72-12.22t-18.2-5q-11.41,0-17.26,4.43t-5.85,10.26a12.3,12.3,0,0,0,5,9.82q5,4.06,19.66,7.11Q466,69.12,473,74a15.79,15.79,0,0,1,7,13.71q0,8.6-7.81,13.95T451.47,107q-14.18,0-22.25-5.72T421.68,87.4l.15-.41h3.3a14.25,14.25,0,0,0,8.26,12.52,39.72,39.72,0,0,0,18.09,3.86q11.26,0,17.86-4.74T475.94,87.67Z"/><path d="M108.62,190.13l.15.41q.3,13.88-10.81,23.22T68.62,223.1q-18.54,0-30.21-11.85T26.75,181.19V163.65q0-18.21,11.67-30.09t30.21-11.88q18.54,0,29.49,8.9t10.66,23.59l-.15.41H94.44q0-10.36-6.75-16.38t-19.06-6q-12.38,0-19.74,9t-7.35,22.34v17.67q0,13.47,7.35,22.48t19.74,9q12.31,0,19.06-6t6.75-16.55Z"/><path d="M129.65,221.67H114.87V116.06h14.78Z"/><path d="M190,221.67q-.75-3.32-1.16-5.86a38.64,38.64,0,0,1-.49-5.11,33.49,33.49,0,0,1-10.77,8.84,29.85,29.85,0,0,1-14.3,3.55q-12.68,0-19.33-5.86t-6.64-16.15q0-10.49,9.42-16.42t25.55-5.92h16.06v-7.24A12.77,12.77,0,0,0,184,161.32q-4.35-3.76-12.31-3.76-7.2,0-11.63,3.25t-4.43,7.79l-14,.13-.15-.41q-.53-8,8.29-14.62t22.78-6.63q13.81,0,22.21,6.33t8.41,18.25v35.27a62,62,0,0,0,.45,7.58,35.63,35.63,0,0,0,1.65,7.18Zm-24.54-9.75a28.45,28.45,0,0,0,14.48-3.72q6.45-3.72,8.41-8.53V187.76H171.76q-8.93,0-14.3,4.06t-5.37,9.55a9.56,9.56,0,0,0,3.38,7.72Q158.86,211.92,165.46,211.92Z"/><path d="M228.29,129.67H213.5V116.06h14.78Zm0,92H213.5V148.42h14.78Z"/><path d="M277.16,160.2l-7.58-.4a18.31,18.31,0,0,0-9.87,2.5,16.49,16.49,0,0,0-6.19,7v52.33H238.73V148.42h13.21l1.43,10.7a26.42,26.42,0,0,1,8.52-8.87,21.47,21.47,0,0,1,11.67-3.18,20.21,20.21,0,0,1,3.15.24,23.09,23.09,0,0,1,2.48.51Z"/><path d="M312.44,223.1Q295,223.1,285.16,213t-9.79-26.54v-3q0-15.77,10.09-26.1a33.16,33.16,0,0,1,24.65-10.32q16.28,0,24.43,9.14t8.14,24.31v7H290.75l-.23.34q0,11,5.4,17.91t16.51,6.87a40.89,40.89,0,0,0,13.17-1.93,30.08,30.08,0,0,0,9.72-5.31l5.78,8.67a36.29,36.29,0,0,1-11.48,6.4A50.23,50.23,0,0,1,312.44,223.1Zm-2.33-65.53a16.82,16.82,0,0,0-12.8,5.38,24.2,24.2,0,0,0-6.19,13.78l.15.34H327.9V176q0-8-4.35-13.2T310.11,157.56Z"/><path d="M396.88,221.67q-.75-3.32-1.16-5.86a38.86,38.86,0,0,1-.49-5.11,33.49,33.49,0,0,1-10.77,8.84,29.85,29.85,0,0,1-14.3,3.55q-12.68,0-19.33-5.86t-6.64-16.15q0-10.49,9.42-16.42t25.55-5.92h16.06v-7.24a12.77,12.77,0,0,0-4.35-10.19q-4.35-3.76-12.31-3.76-7.2,0-11.63,3.25t-4.43,7.79l-14,.13-.15-.41q-.53-8,8.29-14.62t22.78-6.63q13.81,0,22.21,6.33T410,171.64v35.27a62,62,0,0,0,.45,7.58,35.67,35.67,0,0,0,1.65,7.18Zm-24.54-9.75a28.45,28.45,0,0,0,14.48-3.72q6.45-3.72,8.41-8.53V187.76H378.64q-8.93,0-14.3,4.06T359,201.37a9.56,9.56,0,0,0,3.38,7.72Q365.74,211.92,372.34,211.92Z"/><path d="M470.74,210.84a26.25,26.25,0,0,1-9.83,9.07A29.21,29.21,0,0,1,447,223.1q-13.28,0-20.71-7.65t-7.43-23.83V148.42h14.79v43.33q0,11.71,3.83,16.11t11.93,4.4q7.88,0,13-2.88a18.67,18.67,0,0,0,7.77-8.16V148.42H485v73.25H471.72Z"/></g></g></svg>